<svg width="60" height="60" viewBox="0 0 60 60" fill="none" xmlns="http://www.w3.org/2000/svg">
<g clip-path="url(#clip0_1_1967)">
<path opacity="0.135393" d="M30 59.2439C46.5685 59.2439 60 46.0256 60 29.7201C60 13.4145 46.5685 0.196289 30 0.196289C13.4315 0.196289 0 13.4145 0 29.7201C0 46.0256 13.4315 59.2439 30 59.2439Z" fill="#7E5FFF"/>
<path d="M30 46.3323C39.3226 46.3323 46.8801 38.8948 46.8801 29.7201C46.8801 20.5454 39.3226 13.1079 30 13.1079C20.6774 13.1079 13.1199 20.5454 13.1199 29.7201C13.1199 38.8948 20.6774 46.3323 30 46.3323Z" fill="#7E5FFF"/>
<path d="M31.4865 35.0365V30.6251H35.5742V28.0193H31.4865V23.6079H28.6297V28.0193H24.4258V30.6251H28.6297V35.0365H31.4865Z" fill="white"/>
</g>
<defs>
<clipPath id="clip0_1_1967">
<rect width="60" height="60" fill="white"/>
</clipPath>
</defs>
</svg>
